{"title":"Gulaab Gang 2014 Hindi DVDRip x264 MP3 ESubs-MX","uid":10043804,"size":734232596,"categoryP":"video","categoryS":"movies","magnet":"?xt=urn:btih:59a94ad0100fd7a1fce68d39bc381df9b78ac64d&amp;dn=Gulaab+Gang+2014+Hindi+DVDRip+x264+MP3+ESubs-MX&amp;tr=udp%3A%2F%2Ftracker.openbittorrent.com%3A80&amp;tr=udp%3A%2F%2Fopen.demonii.com%3A1337&amp;tr=udp%3A%2F%2Ftracker.coppersurfer.tk%3A6969&amp;tr=udp%3A%2F%2Fexodus.desync.com%3A6969","seeders":1,"leechers":0,"uploader":"HeroMaster","files":-1,"time":1398507258,"description":"::::::::::: MX PRESENTS ::::::::::\n\n\n:::: Gulaab Gang 2014 Hindi DVDRip x264 MP3 ESubs-MX ::::\n\n\n::Information::\n\n\nGulaab Gang 2014 Exclusive\n\n\nSource: OWN\n\n\nGeneral\nComplete name : Gulaab Gang (2014) DVDRIP - x264 - [1CD] - ESubs - By Mx\nFormat : Matroska\nFormat version : Version 4 / Version 2\nFile size : 700 MiB\nDuration : 2h 8mn\nOverall bit rate : 761 Kbps\nMovie name : Mx- Present\n\n\nVideo\nID : 1\nFormat : AVC\nFormat/Info : Advanced Video Codec\nFormat profile : &lt;a class=&quot;__cf_email__&quot; href=&quot;/cdn-cgi/l/email-protection&quot; data-cfemail=&quot;450d2c222d0509766b75&quot;&gt;[email&amp;#160;protected]&lt;/a&gt;&lt;script cf-hash='f9e31' type=&quot;text/javascript&quot;&gt;\n/* &lt;![CDATA[ */!function(){try{var t=&quot;currentScript&quot;in document?document.currentScript:function(){for(var t=document.getElementsByTagName(&quot;script&quot;),e=t.length;e--;)if(t[e].getAttribute(&quot;cf-hash&quot;))return t[e]}();if(t&amp;&amp;t.previousSibling){var e,r,n,i,c=t.previousSibling,a=c.getAttribute(&quot;data-cfemail&quot;);if(a){for(e=&quot;&quot;,r=parseInt(a.substr(0,2),16),n=2;a.length-n;n+=2)i=parseInt(a.substr(n,2),16)^r,e+=String.fromCharCode(i);e=document.createTextNode(e),c.parentNode.replaceChild(e,c)}}}catch(u){}}();/* ]]&gt; */&lt;/script&gt;\nFormat settings, CABAC : Yes\nFormat settings, ReFrames : 4 frames\nCodec ID : V_MPEG4/ISO/AVC\nDuration : 2h 8mn\nBit rate : 681 Kbps\nWidth : 640 pixels\nHeight : 272 pixels\nDisplay aspect ratio : 2.35:1\nFrame rate mode : Constant\nFrame rate : 29.970 fps\nBit depth : 8 bits\nScan type : Progressive\nBits/(Pixel*Frame) : 0.131\nStream size : 657 MiB (94%)\nTitle : Mx- Present\nWriting library : x264\nLanguage : Hindi\nDefault : Yes\nForced : No\n\n\nAudio\nID : 2\nFormat : MPEG Audio\nFormat version : Version 1\nFormat profile : Layer 3\nMode : Joint stereo\nMode extension : MS Stereo\nCodec ID : A_MPEG/L3\nCodec ID/Hint : MP3\nDuration : 2h 8mn\nBit rate mode : Constant\nBit rate : 32.0 Kbps\nChannel(s) : 2 channels\nSampling rate : 32.0 KHz\nCompression mode : Lossy\nDelay relative to video : 11ms\nStream size : 29.4 MiB (4%)\nTitle : Mx-\nLanguage : Hindi\nDefault : Yes\nForced : No \n\n\n::IMDB::\n\n &lt;a href=&quot;\nhttp://www.imdb.com/title/tt2573750/&quot; rel=&quot;nofollow&quot; target=&quot;_NEW&quot;&gt;\nhttp://www.imdb.com/title/tt2573750/&lt;/a&gt;\n\n\n::Greetz and Respect::\n\n\nALL CREDIT Goes to MX for Encoding and SMSadiq for Distribution.\n\n\n::Poster::\n\n &lt;a href=&quot;\nhttp://i.imgur.com/khD7Nhv.jpg&quot; rel=&quot;nofollow&quot; target=&quot;_NEW&quot;&gt;\nhttp://i.imgur.com/khD7Nhv.jpg&lt;/a&gt;\n\n\n::Screenshots::\n\n &lt;a href=&quot;\nhttp://i.imgur.com/5CpFkYX.jpg&quot; rel=&quot;nofollow&quot; target=&quot;_NEW&quot;&gt;\nhttp://i.imgur.com/5CpFkYX.jpg&lt;/a&gt;\n\n &lt;a href=&quot;\nhttp://i.imgur.com/LSBVAqb.jpg&quot; rel=&quot;nofollow&quot; target=&quot;_NEW&quot;&gt;\nhttp://i.imgur.com/LSBVAqb.jpg&lt;/a&gt;\n\n &lt;a href=&quot;\nhttp://i.imgur.com/MVYhWfq.jpg&quot; rel=&quot;nofollow&quot; target=&quot;_NEW&quot;&gt;\nhttp://i.imgur.com/MVYhWfq.jpg&lt;/a&gt;\n\n\nSEED AND ENJOY!","torrent":{"xt":"urn:btih:59a94ad0100fd7a1fce68d39bc381df9b78ac64d","amp;dn":"Gulaab+Gang+2014+Hindi+DVDRip+x264+MP3+ESubs-MX","amp;tr":["udp%3A%2F%2Ftracker.openbittorrent.com%3A80","udp%3A%2F%2Fopen.demonii.com%3A1337","udp%3A%2F%2Ftracker.coppersurfer.tk%3A6969","udp%3A%2F%2Fexodus.desync.com%3A6969"],"infoHash":"59a94ad0100fd7a1fce68d39bc381df9b78ac64d","infoHashBuffer":{"type":"Buffer","data":[89,169,74,208,16,15,215,161,252,230,141,57,188,56,29,249,183,138,198,77]},"announce":[],"urlList":[]}}